<svg xmlns="http://www.w3.org/2000/svg" viewBox="0 0 40 40" preserveAspectRatio="xMidYMid meet" style="width: 80px; height: 80px; transform-origin: 50% 50%; transform: scaleX(1) scaleY(1) rotate(0deg);"><rect id="svg-editor-bg-shape" data-editor="bg-shape" x="0" y="0" width="40" height="40" fill="#FFFFFF" stroke="none" style="pointer-events: none;"/><title/><g id="Playstation" fill="#000000" style="fill:#000000;stroke:none" stroke="none" class=""><path d="M35.27,26.37a5.76,5.76,0,0,1-2.09,1.31l-11.07,4V28.73l8.14-2.91c.93-.33,1.07-.8.32-1a5.51,5.51,0,0,0-3,.15l-5.42,1.92V23.8l.31-.1a18.28,18.28,0,0,1,3.77-.8,16.06,16.06,0,0,1,7,.83C35.61,24.49,35.88,25.6,35.27,26.37Zm-12.11-5v-7.5c0-.89-.16-1.7-1-1.93-.63-.2-1,.39-1,1.27V32l-5.06-1.61V8a61.12,61.12,0,0,1,7,1.91c4.29,1.48,5.74,3.31,5.74,7.44S26.32,22.9,23.16,21.38Zm-16.37,7c-2.46-.69-2.86-2.13-1.75-3a11.91,11.91,0,0,1,2.79-1.34l7.27-2.58v2.94L9.87,26.35c-.92.33-1.07.8-.32,1a5.61,5.61,0,0,0,3-.16l2.51-.91V29l-.5.09a16.39,16.39,0,0,1-7.81-.63Z" id="Path" fill="#000000" style="fill:#000000;stroke:none" stroke="none" class=""/></g></svg>